<?xml version="1.0" encoding="utf-8"?>
<!-- Generator: Adobe Illustrator 14.0.0, SVG Export Plug-In . SVG Version: 6.00 Build 43363)  -->
<!DOCTYPE svg PUBLIC "-//W3C//DTD SVG 1.1//EN" "http://www.w3.org/Graphics/SVG/1.1/DTD/svg11.dtd">
<svg version="1.1" id="Layer_1" xmlns="http://www.w3.org/2000/svg" xmlns:xlink="http://www.w3.org/1999/xlink" x="0px" y="0px"
	 width="24px" height="24px" viewBox="0 0 24 24" enable-background="new 0 0 24 24" xml:space="preserve">
<path fill="none" d="M0,0h24v24H0V0z"/>
<path fill="#6A80A0" d="M20.01,15.38c-1.23,0-2.42-0.2-3.529-0.56c-0.351-0.12-0.74-0.03-1.01,0.24l-1.57,1.969
	C11.07,15.68,8.42,13.13,7.01,10.2l1.95-1.66C9.23,8.26,9.31,7.87,9.2,7.52c-0.37-1.11-0.56-2.3-0.56-3.53C8.64,3.45,8.19,3,7.65,3
	H4.19C3.65,3,3,3.24,3,3.99C3,13.279,10.73,21,20.01,21c0.711,0,0.99-0.63,0.99-1.18v-3.45C21,15.83,20.55,15.38,20.01,15.38z"/>
</svg>
