<?xml version="1.0" encoding="utf-8"?>
<!-- Generator: Adobe Illustrator 14.0.0, SVG Export Plug-In . SVG Version: 6.00 Build 43363)  -->
<!DOCTYPE svg PUBLIC "-//W3C//DTD SVG 1.1//EN" "http://www.w3.org/Graphics/SVG/1.1/DTD/svg11.dtd">
<svg version="1.1" id="Layer_1" xmlns="http://www.w3.org/2000/svg" xmlns:xlink="http://www.w3.org/1999/xlink" x="0px" y="0px"
	 width="24px" height="24px" viewBox="0 0 24 24" enable-background="new 0 0 24 24" xml:space="preserve">
<g id="Header_x2F_BG" display="none">
	<rect x="-358" y="-358" display="inline" fill="#F1F1F2" width="520" height="520"/>
</g>
<g id="Bounding_Boxes">
	<g id="ui_x5F_spec_x5F_header_copy_3">
	</g>
	<path fill="none" d="M0,0h24v24H0V0z"/>
</g>
<g id="Rounded" display="none">
	<g id="ui_x5F_spec_x5F_header_copy_5" display="inline">
	</g>
	<path display="inline" d="M19.66,3.99c-2.641-1.8-5.9-0.96-7.66,1.1c-1.76-2.06-5.02-2.91-7.66-1.1C2.94,4.95,2.06,6.57,2,8.28
		c-0.14,3.88,3.3,6.99,8.55,11.76l0.1,0.09c0.76,0.69,1.93,0.69,2.69-0.01l0.11-0.101c5.25-4.76,8.68-7.87,8.55-11.75
		C21.939,6.57,21.061,4.95,19.66,3.99z M12.1,18.55L12,18.65l-0.1-0.101C7.14,14.24,4,11.39,4,8.5C4,6.5,5.5,5,7.5,5
		c1.54,0,3.04,0.99,3.57,2.36h1.87C13.46,5.99,14.96,5,16.5,5c2,0,3.5,1.5,3.5,3.5C20,11.39,16.859,14.24,12.1,18.55z"/>
</g>
<g id="Sharp" display="none">
	<g id="ui_x5F_spec_x5F_header_copy_4" display="inline">
	</g>
	<path display="inline" d="M16.5,3c-1.74,0-3.41,0.81-4.5,2.09C10.91,3.81,9.24,3,7.5,3C4.42,3,2,5.42,2,8.5
		c0,3.78,3.4,6.859,8.55,11.54L12,21.35l1.45-1.32C18.6,15.359,22,12.28,22,8.5C22,5.42,19.58,3,16.5,3z M12.1,18.55L12,18.65
		l-0.1-0.101C7.14,14.24,4,11.39,4,8.5C4,6.5,5.5,5,7.5,5c1.54,0,3.04,0.99,3.57,2.36h1.87C13.46,5.99,14.96,5,16.5,5
		c2,0,3.5,1.5,3.5,3.5C20,11.39,16.859,14.24,12.1,18.55z"/>
</g>
<g id="Duotone" display="none">
	<g id="ui_x5F_spec_x5F_header_copy_2" display="inline">
	</g>
	<path display="inline" d="M16.5,3c-1.74,0-3.41,0.81-4.5,2.09C10.91,3.81,9.24,3,7.5,3C4.42,3,2,5.42,2,8.5
		c0,3.78,3.4,6.859,8.55,11.54L12,21.35l1.45-1.32C18.6,15.359,22,12.28,22,8.5C22,5.42,19.58,3,16.5,3z M12.1,18.55L12,18.65
		l-0.1-0.101C7.14,14.24,4,11.39,4,8.5C4,6.5,5.5,5,7.5,5c1.54,0,3.04,0.99,3.57,2.36h1.87C13.46,5.99,14.96,5,16.5,5
		c2,0,3.5,1.5,3.5,3.5C20,11.39,16.859,14.24,12.1,18.55z"/>
</g>
<g id="Fill" display="none">
	<g id="ui_x5F_spec_x5F_header_copy" display="inline">
	</g>
	<path display="inline" d="M16.5,3c-1.74,0-3.41,0.81-4.5,2.09C10.91,3.81,9.24,3,7.5,3C4.42,3,2,5.42,2,8.5
		c0,3.78,3.4,6.859,8.55,11.54L12,21.35l1.45-1.32C18.6,15.359,22,12.28,22,8.5C22,5.42,19.58,3,16.5,3z M12.1,18.55L12,18.65
		l-0.1-0.101C7.14,14.24,4,11.39,4,8.5C4,6.5,5.5,5,7.5,5c1.54,0,3.04,0.99,3.57,2.36h1.87C13.46,5.99,14.96,5,16.5,5
		c2,0,3.5,1.5,3.5,3.5C20,11.39,16.859,14.24,12.1,18.55z"/>
</g>
<g id="nyt_x5F_exporter_x5F_info" display="none">
</g>
<path fill-rule="evenodd" clip-rule="evenodd" fill="#C3920F" d="M22,9.131c0-3.211-2.613-5.823-5.823-5.823
	c-1.603,0-3.095,0.645-4.18,1.768c-1.084-1.119-2.575-1.762-4.173-1.762C4.612,3.313,2,5.927,2,9.138
	c0,1.487,0.56,2.899,1.578,3.983c0.017,0.021,0.036,0.042,0.056,0.062l0.059,0.059l0.028,0.028l7.369,7.055
	c0.233,0.233,0.561,0.368,0.908,0.368c0.347,0,0.674-0.135,0.92-0.38c0.231-0.22,6.039-5.728,7.365-7.052
	c0.008-0.008,0.016-0.016,0.022-0.022l-0.01,0.009c0.017-0.016,0.033-0.033,0.05-0.051C21.412,12.103,22,10.66,22,9.131z
	 M19.684,12.594L19.684,12.594c-0.007,0.008-0.014,0.016-0.021,0.022c0,0,0,0,0,0.001c-1.313,1.312-7.376,7.062-7.376,7.062
	c-0.079,0.079-0.185,0.119-0.288,0.119c-0.105,0-0.21-0.04-0.289-0.119l-7.355-7.041c-0.01-0.011-0.02-0.021-0.029-0.03
	l-0.059-0.059c0,0,0.001,0,0.001,0c-0.85-0.886-1.373-2.087-1.373-3.411c0-2.723,2.207-4.929,4.929-4.929
	c1.76,0,3.303,0.922,4.174,2.31c0.871-1.391,2.417-2.316,4.179-2.316c2.722,0,4.929,2.207,4.929,4.929
	C21.105,10.481,20.563,11.704,19.684,12.594z"/>
</svg>
