<?xml version="1.0" encoding="utf-8"?>
<!-- Generator: Adobe Illustrator 14.0.0, SVG Export Plug-In . SVG Version: 6.00 Build 43363)  -->
<!DOCTYPE svg PUBLIC "-//W3C//DTD SVG 1.1//EN" "http://www.w3.org/Graphics/SVG/1.1/DTD/svg11.dtd">
<svg version="1.1" id="Layer_1" xmlns="http://www.w3.org/2000/svg" xmlns:xlink="http://www.w3.org/1999/xlink" x="0px" y="0px"
	 width="36px" height="36px" viewBox="0 0 36 36" enable-background="new 0 0 36 36" xml:space="preserve">
<path fill="#FFFFFF" d="M18,1C8.611,1,1,8.611,1,18c0,9.39,7.611,17,17,17c9.39,0,17-7.61,17-17C35,8.611,27.39,1,18,1z
	 M28.371,21.294c-0.013,1.083-0.048,2.171-0.407,3.213c-0.697,2.02-2.114,3.248-4.193,3.643c-0.939,0.179-1.914,0.22-2.873,0.234
	c-2.057,0.031-4.114,0.019-6.17-0.004c-1.083-0.011-2.171-0.046-3.214-0.403c-2.023-0.691-3.251-2.109-3.652-4.186
	c-0.181-0.938-0.221-1.914-0.235-2.873c-0.032-2.063-0.02-4.128,0.003-6.192c0.012-1.083,0.048-2.171,0.407-3.213
	c0.697-2.02,2.115-3.247,4.193-3.643c0.939-0.178,1.913-0.198,2.874-0.236c0.97-0.038,1.942-0.008,2.914-0.008
	c0-0.01,0-0.019,0-0.029c1.396,0.024,2.792,0.038,4.188,0.077c1.211,0.034,2.385,0.25,3.438,0.893
	c1.381,0.842,2.225,2.083,2.497,3.662c0.163,0.944,0.219,1.914,0.233,2.874C28.405,17.166,28.394,19.229,28.371,21.294z"/>
<path fill="#FFFFFF" d="M18.002,14.548c-1.901,0.001-3.462,1.56-3.464,3.459c-0.002,1.897,1.561,3.462,3.46,3.465
	c1.897,0.002,3.463-1.562,3.464-3.46C21.464,16.114,19.899,14.548,18.002,14.548z"/>
<path fill="#FFFFFF" d="M26.512,17.843c0-0.819,0.016-1.64-0.005-2.459c-0.021-0.788-0.052-1.578-0.131-2.362
	c-0.179-1.757-1.225-2.968-2.954-3.296c-0.909-0.173-1.854-0.2-2.783-0.217c-1.761-0.032-3.521-0.027-5.283-0.001
	c-0.877,0.013-1.764,0.046-2.629,0.182c-1.502,0.234-2.529,1.094-2.945,2.584c-0.133,0.477-0.211,0.983-0.223,1.479
	c-0.045,1.881-0.073,3.763-0.066,5.645c0.004,1.197,0.031,2.398,0.135,3.591c0.157,1.786,1.244,3.005,3.003,3.324
	c0.904,0.164,1.84,0.185,2.764,0.2c1.737,0.029,3.476,0.021,5.213,0.003c0.797-0.009,1.594-0.054,2.385-0.132
	c0.74-0.073,1.434-0.314,2.029-0.787c0.966-0.767,1.339-1.825,1.395-2.998c0.077-1.583,0.094-3.169,0.136-4.754
	C26.539,17.843,26.524,17.843,26.512,17.843z M17.995,23.346c-2.978,0-5.332-2.378-5.331-5.387c0.001-2.932,2.4-5.286,5.387-5.285
	c2.917,0.002,5.285,2.396,5.285,5.341C23.336,20.976,20.961,23.347,17.995,23.346z M23.546,13.72
	c-0.69-0.004-1.261-0.579-1.256-1.263c0.006-0.686,0.56-1.236,1.246-1.24c0.711-0.003,1.256,0.535,1.257,1.241
	C24.794,13.157,24.233,13.725,23.546,13.72z"/>
</svg>
