<?xml version="1.0" encoding="utf-8"?>
<!-- Generator: Adobe Illustrator 14.0.0, SVG Export Plug-In . SVG Version: 6.00 Build 43363)  -->
<!DOCTYPE svg PUBLIC "-//W3C//DTD SVG 1.1//EN" "http://www.w3.org/Graphics/SVG/1.1/DTD/svg11.dtd">
<svg version="1.1" id="Layer_1" xmlns="http://www.w3.org/2000/svg" xmlns:xlink="http://www.w3.org/1999/xlink" x="0px" y="0px"
	 width="24px" height="24px" viewBox="6 6 24 24" enable-background="new 6 6 24 24" xml:space="preserve">
<g>
	<path fill="#363636" d="M18.015,8.991c1.209,0.021,2.418,0.033,3.626,0.067c1.049,0.029,2.065,0.217,2.978,0.773
		c1.195,0.729,1.926,1.805,2.162,3.171c0.142,0.817,0.189,1.657,0.202,2.488c0.027,1.787,0.017,3.575-0.003,5.363
		c-0.011,0.938-0.041,1.88-0.353,2.782c-0.604,1.749-1.831,2.813-3.631,3.154c-0.813,0.154-1.657,0.189-2.488,0.203
		c-1.781,0.026-3.562,0.016-5.343-0.003c-0.938-0.011-1.88-0.041-2.783-0.35c-1.752-0.599-2.815-1.826-3.163-3.625
		c-0.157-0.813-0.191-1.657-0.204-2.488C8.989,18.74,9,16.952,9.02,15.164c0.01-0.938,0.042-1.88,0.353-2.782
		c0.604-1.749,1.831-2.812,3.631-3.154c0.813-0.154,1.657-0.172,2.488-0.205c0.84-0.033,1.682-0.007,2.523-0.007
		C18.015,9.008,18.015,9,18.015,8.991 M25.406,17.865c-0.012,0-0.024,0-0.036-0.001c0-0.709,0.015-1.42-0.004-2.129
		c-0.019-0.683-0.044-1.366-0.113-2.045c-0.154-1.522-1.06-2.57-2.558-2.855c-0.788-0.15-1.605-0.173-2.41-0.188
		c-1.525-0.028-3.05-0.024-4.575-0.001c-0.759,0.012-1.527,0.04-2.276,0.157c-1.301,0.203-2.19,0.947-2.55,2.238
		c-0.115,0.413-0.183,0.851-0.193,1.28c-0.039,1.629-0.063,3.259-0.057,4.889c0.004,1.037,0.027,2.077,0.118,3.109
		c0.135,1.548,1.077,2.603,2.601,2.879c0.783,0.143,1.594,0.16,2.393,0.174c1.504,0.025,3.01,0.019,4.515,0.002
		c0.689-0.008,1.38-0.046,2.064-0.113c0.642-0.063,1.242-0.273,1.758-0.682c0.836-0.665,1.159-1.581,1.208-2.597
		C25.356,20.611,25.37,19.238,25.406,17.865"/>
	<path fill="#363636" d="M22.621,18.013c0,2.564-2.058,4.618-4.625,4.617c-2.579,0-4.617-2.06-4.616-4.666
		c0.001-2.539,2.079-4.578,4.665-4.576C20.57,13.39,22.621,15.462,22.621,18.013 M17.998,21.008c1.644,0.002,2.999-1.352,3-2.997
		c0.002-1.644-1.354-3-2.996-3c-1.647,0.001-2.998,1.351-3,2.996C15,19.651,16.354,21.006,17.998,21.008"/>
	<path fill="#363636" d="M23.883,13.201c0.001,0.605-0.485,1.097-1.081,1.092c-0.598-0.003-1.092-0.501-1.087-1.094
		c0.006-0.594,0.484-1.07,1.079-1.073C23.409,12.123,23.882,12.59,23.883,13.201"/>
</g>
</svg>
