<?xml version="1.0" encoding="utf-8"?>
<!-- Generator: Adobe Illustrator 14.0.0, SVG Export Plug-In . SVG Version: 6.00 Build 43363)  -->
<!DOCTYPE svg PUBLIC "-//W3C//DTD SVG 1.1//EN" "http://www.w3.org/Graphics/SVG/1.1/DTD/svg11.dtd">
<svg version="1.1" id="Layer_1" xmlns="http://www.w3.org/2000/svg" xmlns:xlink="http://www.w3.org/1999/xlink" x="0px" y="0px"
	 width="24px" height="24px" viewBox="0 0 24 24" enable-background="new 0 0 24 24" xml:space="preserve">
<g id="Bounding_Boxes">
	<g id="ui_x5F_spec_x5F_header_copy_3" display="none">
	</g>
	<path fill="none" d="M0,0h24v24H0V0z"/>
</g>
<g id="Rounded" display="none">
	<g id="ui_x5F_spec_x5F_header_copy_5" display="inline">
	</g>
	<path display="inline" d="M15.5,14h-0.79l-0.28-0.27c1.2-1.4,1.82-3.311,1.48-5.34c-0.471-2.78-2.79-5-5.59-5.34
		c-4.23-0.52-7.79,3.04-7.27,7.27c0.34,2.8,2.56,5.12,5.34,5.59c2.03,0.34,3.94-0.28,5.34-1.48L14,14.71v0.79l4.25,4.25
		c0.41,0.41,1.08,0.41,1.49,0l0,0c0.41-0.41,0.41-1.08,0-1.49L15.5,14z M9.5,14C7.01,14,5,11.99,5,9.5S7.01,5,9.5,5S14,7.01,14,9.5
		S11.99,14,9.5,14z"/>
</g>
<g id="Sharp" display="none">
	<g id="ui_x5F_spec_x5F_header_copy_4" display="inline">
	</g>
	<path display="inline" d="M15.5,14h-0.79l-0.28-0.27C15.41,12.59,16,11.11,16,9.5C16,5.91,13.09,3,9.5,3S3,5.91,3,9.5
		S5.91,16,9.5,16c1.61,0,3.09-0.59,4.23-1.57L14,14.71v0.79l5,4.99L20.49,19L15.5,14z M9.5,14C7.01,14,5,11.99,5,9.5S7.01,5,9.5,5
		S14,7.01,14,9.5S11.99,14,9.5,14z"/>
</g>
<g id="Duotone" display="none">
	<g id="ui_x5F_spec_x5F_header_copy_2" display="inline">
	</g>
	<g display="inline">
		<path d="M15.5,14h-0.79l-0.28-0.27C15.41,12.59,16,11.11,16,9.5C16,5.91,13.09,3,9.5,3S3,5.91,3,9.5S5.91,16,9.5,16
			c1.61,0,3.09-0.59,4.23-1.57L14,14.71v0.79l5,4.99L20.49,19L15.5,14z M9.5,14C7.01,14,5,11.99,5,9.5S7.01,5,9.5,5S14,7.01,14,9.5
			S11.99,14,9.5,14z"/>
	</g>
</g>
<g id="Material" display="none">
	<g id="ui_x5F_spec_x5F_header_copy" display="inline">
	</g>
	<path display="inline" d="M15.5,14h-0.79l-0.28-0.27C15.41,12.59,16,11.11,16,9.5C16,5.91,13.09,3,9.5,3S3,5.91,3,9.5
		S5.91,16,9.5,16c1.61,0,3.09-0.59,4.23-1.57L14,14.71v0.79l5,4.99L20.49,19L15.5,14z M9.5,14C7.01,14,5,11.99,5,9.5S7.01,5,9.5,5
		S14,7.01,14,9.5S11.99,14,9.5,14z"/>
</g>
<path fill="#A77A00" d="M20.104,20.937c-0.004,0-0.006,0-0.01,0H3.52c-0.126,0-0.246-0.05-0.331-0.141
	c-0.084-0.091-0.128-0.212-0.121-0.334L3.973,6.66c0.016-0.234,0.214-0.416,0.451-0.416h3.81V6.207c0-1.939,1.603-3.519,3.575-3.519
	c1.968,0,3.573,1.579,3.573,3.519c0,0.014-0.009,0.024-0.009,0.036h3.817c0.239,0,0.435,0.182,0.451,0.415l0.9,13.713
	c0.009,0.038,0.016,0.079,0.016,0.12C20.558,20.739,20.353,20.937,20.104,20.937z M14.477,6.207c0-1.449-1.197-2.63-2.667-2.63
	c-1.474,0-2.67,1.181-2.67,2.63v0.036h5.345C14.483,6.231,14.477,6.221,14.477,6.207z M18.769,7.135h-3.387v1.006
	c0.218,0.146,0.37,0.379,0.37,0.659c0,0.447-0.368,0.811-0.823,0.811c-0.457,0-0.823-0.363-0.823-0.811
	c0-0.28,0.151-0.514,0.37-0.659V7.135H9.139v1.006C9.356,8.286,9.509,8.52,9.509,8.8c0,0.447-0.369,0.811-0.823,0.811
	C8.23,9.61,7.862,9.247,7.862,8.8c0-0.28,0.152-0.514,0.37-0.659V7.135H4.846L4.004,20.046h15.607L18.769,7.135z"/>
</svg>
