<?xml version="1.0" encoding="utf-8"?>
<!-- Generator: Adobe Illustrator 14.0.0, SVG Export Plug-In . SVG Version: 6.00 Build 43363)  -->
<!DOCTYPE svg PUBLIC "-//W3C//DTD SVG 1.1//EN" "http://www.w3.org/Graphics/SVG/1.1/DTD/svg11.dtd">
<svg version="1.1" id="Layer_1" xmlns="http://www.w3.org/2000/svg" xmlns:xlink="http://www.w3.org/1999/xlink" x="0px" y="0px"
	 width="36px" height="36px" viewBox="0 0 36 36" enable-background="new 0 0 36 36" xml:space="preserve">
<path fill="#FFFFFF" d="M18,1C8.611,1,1,8.611,1,18c0,9.39,7.611,17,17,17c9.389,0,17-7.61,17-17C35,8.611,27.389,1,18,1z
	 M19.328,22.605c-1.244-0.096-1.767-0.713-2.743-1.306c-0.537,2.814-1.191,5.512-3.133,6.921c-0.6-4.253,0.879-7.448,1.567-10.839
	c-1.171-1.972,0.141-5.941,2.611-4.963c3.041,1.203-2.632,7.333,1.176,8.098c3.977,0.799,5.6-6.9,3.135-9.403
	c-3.563-3.616-10.371-0.083-9.535,5.093c0.205,1.265,1.512,1.65,0.523,3.396c-2.28-0.505-2.96-2.304-2.874-4.701
	c0.141-3.924,3.526-6.673,6.922-7.053c4.294-0.481,8.324,1.576,8.881,5.616C26.484,18.023,23.92,22.961,19.328,22.605z"/>
</svg>
