<?xml version="1.0" encoding="utf-8"?>
<!-- Generator: Adobe Illustrator 14.0.0, SVG Export Plug-In . SVG Version: 6.00 Build 43363)  -->
<!DOCTYPE svg PUBLIC "-//W3C//DTD SVG 1.1//EN" "http://www.w3.org/Graphics/SVG/1.1/DTD/svg11.dtd">
<svg version="1.1" id="Layer_1" xmlns="http://www.w3.org/2000/svg" xmlns:xlink="http://www.w3.org/1999/xlink" x="0px" y="0px"
	 width="24px" height="24px" viewBox="6 6 24 24" enable-background="new 6 6 24 24" xml:space="preserve">
<path fill-rule="evenodd" clip-rule="evenodd" fill="#363636" d="M22.306,19.774c-0.221-0.122-1.309-0.709-1.513-0.792
	s-0.354-0.126-0.513,0.095c-0.157,0.22-0.61,0.711-0.746,0.856c-0.138,0.146-0.27,0.16-0.492,0.038
	c-0.221-0.121-0.938-0.387-1.771-1.188c-0.648-0.623-1.074-1.378-1.197-1.608s0-0.349,0.116-0.456
	c0.105-0.098,0.236-0.256,0.354-0.384c0.117-0.126,0.159-0.22,0.239-0.367c0.081-0.147,0.048-0.28-0.004-0.396
	c-0.052-0.114-0.461-1.241-0.632-1.7c-0.172-0.458-0.362-0.391-0.493-0.396c-0.133-0.004-0.282-0.028-0.432-0.035
	c-0.151-0.005-0.397,0.042-0.612,0.261c-0.215,0.217-0.819,0.74-0.86,1.851c-0.042,1.11,0.727,2.213,0.834,2.367
	c0.107,0.155,1.466,2.561,3.724,3.549c2.261,0.99,2.272,0.688,2.687,0.666c0.415-0.021,1.355-0.496,1.563-1.015
	c0.207-0.521,0.224-0.972,0.171-1.067C22.676,19.957,22.527,19.896,22.306,19.774 M18.162,25.122c-1.492,0-2.885-0.447-4.046-1.216
	l-2.826,0.905l0.918-2.732c-0.88-1.213-1.4-2.702-1.4-4.313c0-4.057,3.3-7.356,7.354-7.356c4.058,0,7.357,3.3,7.357,7.356
	C25.52,21.822,22.22,25.122,18.162,25.122 M18.162,8.931c-4.879,0-8.835,3.956-8.835,8.836c0,1.669,0.463,3.23,1.269,4.563L9,27.069
	l4.893-1.565c1.266,0.699,2.721,1.099,4.27,1.099c4.882,0,8.838-3.956,8.838-8.836S23.044,8.931,18.162,8.931"/>
</svg>
