<?xml version="1.0" encoding="utf-8"?>
<!-- Generator: Adobe Illustrator 14.0.0, SVG Export Plug-In . SVG Version: 6.00 Build 43363)  -->
<!DOCTYPE svg PUBLIC "-//W3C//DTD SVG 1.1//EN" "http://www.w3.org/Graphics/SVG/1.1/DTD/svg11.dtd">
<svg version="1.1" id="Layer_1" xmlns="http://www.w3.org/2000/svg" xmlns:xlink="http://www.w3.org/1999/xlink" x="0px" y="0px"
	 width="36px" height="36px" viewBox="0 0 36 36" enable-background="new 0 0 36 36" xml:space="preserve">
<path fill="#FFFFFF" d="M18,1C8.611,1,1,8.611,1,18c0,9.39,7.611,17,17,17c9.389,0,17-7.61,17-17C35,8.611,27.389,1,18,1z
	 M26.344,13.721c0.009,0.185,0.013,0.37,0.013,0.557c0,5.69-4.331,12.25-12.25,12.25c-2.431,0-4.694-0.712-6.599-1.935
	c0.336,0.04,0.679,0.061,1.026,0.061c2.018,0,3.873-0.688,5.348-1.844c-1.885-0.034-3.475-1.279-4.022-2.989
	c0.263,0.05,0.532,0.077,0.811,0.077c0.393,0,0.773-0.053,1.134-0.151c-1.969-0.396-3.453-2.135-3.453-4.221
	c0-0.019,0-0.037,0-0.055c0.58,0.323,1.244,0.517,1.95,0.539c-1.155-0.772-1.915-2.091-1.915-3.584c0-0.789,0.212-1.529,0.583-2.165
	c2.123,2.605,5.296,4.319,8.874,4.499c-0.074-0.314-0.113-0.644-0.113-0.981c0-2.377,1.929-4.306,4.306-4.306
	c1.239,0,2.357,0.523,3.144,1.36c0.98-0.193,1.902-0.551,2.734-1.045c-0.322,1.006-1.005,1.849-1.894,2.382
	c0.871-0.104,1.7-0.335,2.473-0.678C27.915,12.355,27.186,13.114,26.344,13.721z"/>
</svg>
