<?xml version="1.0" encoding="utf-8"?>
<!-- Generator: Adobe Illustrator 14.0.0, SVG Export Plug-In . SVG Version: 6.00 Build 43363)  -->
<!DOCTYPE svg PUBLIC "-//W3C//DTD SVG 1.1//EN" "http://www.w3.org/Graphics/SVG/1.1/DTD/svg11.dtd">
<svg version="1.1" id="Layer_1" xmlns="http://www.w3.org/2000/svg" xmlns:xlink="http://www.w3.org/1999/xlink" x="0px" y="0px"
	 width="24px" height="24px" viewBox="6 6 24 24" enable-background="new 6 6 24 24" xml:space="preserve">
<path fill="#363636" d="M27,12.417c-0.662,0.294-1.374,0.492-2.121,0.581c0.762-0.457,1.348-1.18,1.624-2.042
	c-0.714,0.423-1.504,0.73-2.345,0.896c-0.675-0.718-1.634-1.167-2.696-1.167c-2.039,0-3.694,1.654-3.694,3.693
	c0,0.29,0.033,0.571,0.097,0.842c-3.069-0.154-5.791-1.625-7.612-3.859c-0.318,0.545-0.5,1.18-0.5,1.856
	c0,1.281,0.652,2.412,1.643,3.074c-0.605-0.019-1.175-0.186-1.672-0.463c0,0.016,0,0.032,0,0.047c0,1.79,1.273,3.281,2.962,3.62
	c-0.31,0.085-0.636,0.131-0.973,0.131c-0.239,0-0.47-0.024-0.695-0.066c0.47,1.467,1.834,2.534,3.45,2.564
	c-1.264,0.99-2.856,1.581-4.587,1.581c-0.298,0-0.592-0.018-0.88-0.052c1.633,1.048,3.575,1.659,5.66,1.659
	c6.793,0,10.508-5.627,10.508-10.508c0-0.16-0.003-0.319-0.011-0.478C25.879,13.809,26.505,13.158,27,12.417"/>
</svg>
