<?xml version="1.0" encoding="utf-8"?>
<!-- Generator: Adobe Illustrator 14.0.0, SVG Export Plug-In . SVG Version: 6.00 Build 43363)  -->
<!DOCTYPE svg PUBLIC "-//W3C//DTD SVG 1.1//EN" "http://www.w3.org/Graphics/SVG/1.1/DTD/svg11.dtd">
<svg version="1.1" id="Layer_1" xmlns="http://www.w3.org/2000/svg" xmlns:xlink="http://www.w3.org/1999/xlink" x="0px" y="0px"
	 width="24px" height="24px" viewBox="0 0 24 24" enable-background="new 0 0 24 24" xml:space="preserve">
<g id="Bounding_Boxes">
	<g id="ui_x5F_spec_x5F_header_copy_3" display="none">
	</g>
	<path fill="none" d="M0,0h24v24H0V0z"/>
</g>
<g id="Rounded" display="none">
	<g id="ui_x5F_spec_x5F_header_copy_5" display="inline">
	</g>
	<path display="inline" d="M15.5,14h-0.79l-0.28-0.27c1.2-1.4,1.82-3.311,1.48-5.34c-0.471-2.78-2.79-5-5.59-5.34
		c-4.23-0.52-7.79,3.04-7.27,7.27c0.34,2.8,2.56,5.12,5.34,5.59c2.03,0.34,3.94-0.28,5.34-1.48L14,14.71v0.79l4.25,4.25
		c0.41,0.41,1.08,0.41,1.49,0l0,0c0.41-0.41,0.41-1.08,0-1.49L15.5,14z M9.5,14C7.01,14,5,11.99,5,9.5S7.01,5,9.5,5S14,7.01,14,9.5
		S11.99,14,9.5,14z"/>
</g>
<g id="Sharp" display="none">
	<g id="ui_x5F_spec_x5F_header_copy_4" display="inline">
	</g>
	<path display="inline" d="M15.5,14h-0.79l-0.28-0.27C15.41,12.59,16,11.11,16,9.5C16,5.91,13.09,3,9.5,3S3,5.91,3,9.5
		S5.91,16,9.5,16c1.61,0,3.09-0.59,4.23-1.57L14,14.71v0.79l5,4.99L20.49,19L15.5,14z M9.5,14C7.01,14,5,11.99,5,9.5S7.01,5,9.5,5
		S14,7.01,14,9.5S11.99,14,9.5,14z"/>
</g>
<g id="Duotone" display="none">
	<g id="ui_x5F_spec_x5F_header_copy_2" display="inline">
	</g>
	<g display="inline">
		<path d="M15.5,14h-0.79l-0.28-0.27C15.41,12.59,16,11.11,16,9.5C16,5.91,13.09,3,9.5,3S3,5.91,3,9.5S5.91,16,9.5,16
			c1.61,0,3.09-0.59,4.23-1.57L14,14.71v0.79l5,4.99L20.49,19L15.5,14z M9.5,14C7.01,14,5,11.99,5,9.5S7.01,5,9.5,5S14,7.01,14,9.5
			S11.99,14,9.5,14z"/>
	</g>
</g>
<g id="Material" display="none">
	<g id="ui_x5F_spec_x5F_header_copy" display="inline">
	</g>
	<path display="inline" d="M15.5,14h-0.79l-0.28-0.27C15.41,12.59,16,11.11,16,9.5C16,5.91,13.09,3,9.5,3S3,5.91,3,9.5
		S5.91,16,9.5,16c1.61,0,3.09-0.59,4.23-1.57L14,14.71v0.79l5,4.99L20.49,19L15.5,14z M9.5,14C7.01,14,5,11.99,5,9.5S7.01,5,9.5,5
		S14,7.01,14,9.5S11.99,14,9.5,14z"/>
</g>
<path fill-rule="evenodd" clip-rule="evenodd" fill="#A77A00" d="M20.096,20.177c-0.103,0.103-0.236,0.153-0.371,0.153
	c-0.134,0-0.269-0.051-0.371-0.153l-4.97-4.966c-1.332,1.148-3.008,1.779-4.785,1.779c-4.048,0-7.341-3.29-7.341-7.335
	c0-4.044,3.293-7.335,7.341-7.335s7.341,3.291,7.341,7.335c0,1.79-0.644,3.479-1.812,4.814l4.968,4.965
	C20.302,19.64,20.302,19.972,20.096,20.177z M15.906,9.655c0-3.476-2.829-6.303-6.308-6.303c-3.478,0-6.308,2.827-6.308,6.303
	s2.83,6.304,6.308,6.304c1.685,0,3.27-0.656,4.46-1.847C15.25,12.922,15.906,11.339,15.906,9.655z M9.401,5.633
	c-2.127,0.343-3.67,2.154-3.67,4.306c0,0.182,0.016,0.377,0.049,0.615c0.034,0.24-0.133,0.462-0.373,0.495
	c-0.02,0.003-0.041,0.005-0.062,0.005c-0.215,0-0.402-0.158-0.433-0.377c-0.04-0.28-0.059-0.515-0.059-0.738
	c0-2.585,1.854-4.76,4.407-5.171c0.237-0.04,0.464,0.124,0.503,0.362C9.803,5.37,9.64,5.595,9.401,5.633z"/>
</svg>
