<?xml version="1.0" encoding="utf-8"?>
<!-- Generator: Adobe Illustrator 14.0.0, SVG Export Plug-In . SVG Version: 6.00 Build 43363)  -->
<!DOCTYPE svg PUBLIC "-//W3C//DTD SVG 1.1//EN" "http://www.w3.org/Graphics/SVG/1.1/DTD/svg11.dtd">
<svg version="1.1" id="Layer_1" xmlns="http://www.w3.org/2000/svg" xmlns:xlink="http://www.w3.org/1999/xlink" x="0px" y="0px"
	 width="205px" height="70px" viewBox="0 0 205 70" enable-background="new 0 0 205 70" xml:space="preserve">
<path fill="#004FA3" d="M76.279,19.886L64.668,48.01c-3.938-9.386-7.899-18.941-11.623-27.936l-0.08-0.193l-3.088,0.678l0.114,0.275
	c4.53,10.989,9.323,22.429,14.653,34.974l0.232,0.548L79.74,20.552L76.279,19.886z"/>
<path fill="#004FA3" d="M202.339,43.464c-1.078-1.196-2.719-2.109-4.868-2.712c-0.391-0.124-0.941-0.264-1.63-0.414
	c-3.334-0.815-4.955-2.113-4.955-3.966c0-1.229,0.44-2.193,1.346-2.949c0.913-0.761,2.122-1.147,3.593-1.147
	c0.888,0,1.802,0.202,2.788,0.615c0.977,0.432,1.92,1.046,2.805,1.825l0.2,0.176l2.082-2.695l-0.178-0.155
	c-1.107-0.965-2.306-1.685-3.555-2.138c-1.232-0.479-2.609-0.722-4.095-0.722c-2.409,0-4.44,0.702-6.039,2.087
	c-1.616,1.429-2.401,3.134-2.401,5.215c0,1.937,0.601,3.482,1.786,4.597c1.188,1.095,3.314,2.022,6.504,2.84
	c1.79,0.441,3.046,1.001,3.729,1.661c0.662,0.659,0.997,1.564,0.997,2.69c0,1.274-0.47,2.337-1.399,3.159
	c-0.904,0.817-2.118,1.232-3.607,1.232c-1.173,0-2.309-0.26-3.377-0.772c-1.051-0.493-2.018-1.245-2.874-2.235l-0.172-0.199
	l-2.451,2.342l0.145,0.179c1.059,1.317,2.314,2.32,3.735,2.984c1.475,0.665,3.094,1.002,4.813,1.002
	c2.503,0,4.604-0.772,6.242-2.294c1.655-1.516,2.495-3.455,2.495-5.763C203.996,46.129,203.438,44.632,202.339,43.464z"/>
<path fill="#004FA3" d="M189.799,20.374c-0.413-0.624-1.059-1.178-1.973-1.696l-0.186-0.105l-2.477,3.103l0.252,0.146
	c0.512,0.295,0.946,0.638,1.25,0.986c0.271,0.332,0.401,0.623,0.401,0.89c0,0.32-0.151,0.763-0.45,1.317
	c-0.297,0.555-0.999,1.602-2.211,3.293l-0.148,0.207l1.993,1.369l0.146-0.179c1.698-2.092,2.816-3.621,3.325-4.547
	c0.524-0.982,0.779-1.854,0.779-2.666C190.501,21.71,190.262,20.994,189.799,20.374z"/>
<path fill="#004FA3" d="M180.774,51.063c-0.259,0.128-0.521,0.264-0.771,0.37c-0.361,0.154-0.719,0.286-1.076,0.403
	c-0.049,0.017-0.098,0.032-0.146,0.048c-1.122,0.354-2.232,0.53-3.366,0.53c-0.404,0-0.798-0.033-1.188-0.076
	c-0.14-0.017-0.279-0.032-0.42-0.055c-0.336-0.051-0.666-0.116-0.99-0.199c-0.075-0.019-0.151-0.035-0.226-0.056
	c-0.409-0.116-0.811-0.255-1.199-0.423c-0.009-0.003-0.017-0.008-0.025-0.011c-0.409-0.179-0.807-0.385-1.191-0.621
	c-1.145-0.699-2.119-1.637-2.918-2.783c-0.232-0.335-0.454-0.682-0.655-1.053l19.54-11.513l-0.107-0.209
	c-0.254-0.496-0.531-0.961-0.833-1.396c-0.151-0.217-0.327-0.404-0.49-0.606c-0.164-0.204-0.316-0.422-0.493-0.611
	c-0.079-0.084-0.174-0.153-0.256-0.234c-0.648-0.646-1.365-1.216-2.187-1.691c-0.285-0.164-0.592-0.292-0.892-0.431
	c-1.618-0.75-3.444-1.151-5.474-1.151c-0.4,0-0.834,0.023-1.28,0.057c-0.064,0.005-0.129,0.009-0.192,0.015
	c-0.078,0.007-0.151,0.01-0.23,0.018v-0.006l-0.5,0.059v0.005c-0.152,0.021-0.299,0.055-0.449,0.081
	c-0.063,0.011-0.125,0.022-0.187,0.034c-0.374,0.07-0.741,0.154-1.101,0.253c-0.046,0.013-0.094,0.023-0.14,0.037
	c-0.786,0.226-1.54,0.521-2.257,0.887c-0.11,0.056-0.217,0.118-0.324,0.177c-0.233,0.127-0.463,0.261-0.688,0.403
	c-0.127,0.081-0.253,0.164-0.378,0.249c-0.21,0.144-0.415,0.295-0.617,0.453c-0.113,0.088-0.229,0.172-0.339,0.264
	c-0.304,0.251-0.6,0.514-0.886,0.797c-0.639,0.622-1.199,1.287-1.681,1.994c-1.443,2.119-2.173,4.613-2.173,7.445v0.001v0.001
	c0,3.777,1.288,6.968,3.828,9.482c0.29,0.29,0.592,0.56,0.899,0.816c0.113,0.095,0.23,0.18,0.346,0.27
	c0.195,0.153,0.394,0.303,0.597,0.442c0.149,0.104,0.303,0.201,0.456,0.298c0.171,0.107,0.345,0.21,0.52,0.309
	c0.181,0.102,0.361,0.201,0.547,0.294c0.138,0.069,0.28,0.13,0.421,0.194c1.426,0.646,2.982,1.037,4.669,1.156
	c0.308,0.023,0.624,0.036,0.945,0.04c0.067,0.001,0.131,0.009,0.198,0.009c0.437,0,0.871-0.02,1.304-0.057
	c1.297-0.111,2.546-0.39,3.786-0.845c0.528-0.187,1.061-0.422,1.596-0.682c1.086-0.526,2.188-1.191,3.336-2.039l0.102-0.075V47.89
	v-0.001l-0.406,0.324C183.585,49.445,182.127,50.39,180.774,51.063z M168.333,35.39c0.011-0.01,0.021-0.019,0.032-0.029
	c0.317-0.311,0.65-0.589,0.993-0.85c0.078-0.06,0.157-0.118,0.236-0.175c0.361-0.258,0.731-0.498,1.118-0.701
	c0.007-0.003,0.015-0.006,0.021-0.009c0.369-0.193,0.754-0.352,1.146-0.495c0.114-0.041,0.228-0.082,0.343-0.119
	c0.361-0.117,0.731-0.214,1.111-0.29c0.623-0.121,1.272-0.184,1.943-0.192c0.047,0,0.088-0.005,0.135-0.005
	c1.369,0,2.57,0.215,3.571,0.64c0.539,0.224,1.03,0.517,1.481,0.861c0.309,0.235,0.601,0.491,0.866,0.781l-15.842,9.423
	c-0.014-0.204-0.028-0.405-0.043-0.596c-0.021-0.336-0.021-0.717-0.021-1.167c0-2.273,0.671-4.281,1.977-5.998
	C167.686,36.098,167.988,35.734,168.333,35.39z"/>
<path fill="#004FA3" d="M161.291,52.19c-0.365,0.058-0.735,0.087-1.099,0.087c-1.48,0-2.521-0.408-3.093-1.212
	c-0.59-0.851-0.89-2.603-0.89-5.206v-12.81h6.507V29.84h-6.507v-7.764l-3.299,1.956v5.808h-2.733l-0.945,3.209h3.679v12.471
	c0,3.805,0.53,6.368,1.622,7.84c1.097,1.457,2.954,2.195,5.522,2.195c0.447,0,0.868-0.031,1.274-0.095
	c0.435-0.045,0.888-0.126,1.426-0.255l0.191-0.046v-3.248L161.291,52.19z"/>
<path fill="#004FA3" d="M149.181,37.327c0-1.73-0.242-3.154-0.729-4.305c-0.311-0.737-0.718-1.364-1.232-1.879
	c-0.163-0.163-0.339-0.315-0.525-0.458c-1.089-0.833-2.582-1.319-4.449-1.458c-0.368-0.027-0.746-0.045-1.143-0.045h-0.001h-0.001
	c-0.001,0-0.002,0-0.003,0c-0.395,0-0.788,0.015-1.181,0.033V29.2l-0.5,0.041v0.014c-0.571,0.065-1.16,0.147-1.747,0.25
	c-0.621,0.107-1.249,0.251-1.89,0.425c-0.569,0.154-1.148,0.331-1.749,0.541l-0.115,0.041l-1.307,3.872l0,0v0.001l0.513-0.216
	c1.49-0.63,2.918-1.124,4.237-1.467c0.007-0.001,0.013-0.002,0.02-0.004c0.521-0.132,1.042-0.227,1.56-0.3
	c0.081-0.012,0.164-0.026,0.244-0.036c0.547-0.068,1.09-0.107,1.624-0.107c1.768,0,3.063,0.389,3.854,1.16
	c0.308,0.291,0.536,0.659,0.727,1.068c0.317,0.683,0.492,1.514,0.492,2.552v2.529c-0.282-0.267-0.583-0.507-0.893-0.734
	c-0.561-0.413-1.162-0.769-1.809-1.049c-0.057-0.023-0.114-0.039-0.171-0.062c-0.237-0.094-0.475-0.182-0.712-0.256
	c-0.06-0.019-0.119-0.031-0.178-0.049c-0.239-0.07-0.479-0.132-0.721-0.183c-0.069-0.014-0.139-0.024-0.208-0.037
	c-0.225-0.041-0.45-0.076-0.677-0.101c-0.096-0.011-0.193-0.018-0.289-0.025c-0.103-0.008-0.204-0.022-0.307-0.027l-0.5-0.013v0.003
	c-1.285,0.003-2.482,0.235-3.583,0.696c-1.104,0.461-2.108,1.148-3.008,2.062c-1.832,1.809-2.762,4.035-2.762,6.618
	c0,2.603,0.921,4.845,2.737,6.663c1.853,1.829,4.086,2.757,6.638,2.757c0.036,0,0.072-0.003,0.114-0.008
	c0.093-0.001,0.183-0.01,0.274-0.014h0.089V55.8c0.283-0.013,0.563-0.037,0.835-0.075c0.056-0.008,0.11-0.018,0.165-0.026
	c0.213-0.033,0.425-0.069,0.632-0.117c0.177-0.041,0.349-0.093,0.521-0.145c0.098-0.03,0.198-0.054,0.295-0.087
	c0.288-0.099,0.57-0.21,0.846-0.342c0.974-0.449,1.869-1.09,2.67-1.907v2.784v0.002l1.353-0.297l1.948-0.426V37.327z
	 M139.804,52.619c-0.073,0-0.142-0.007-0.214-0.009c-1.748-0.063-3.172-0.638-4.342-1.763c-1.189-1.19-1.792-2.685-1.792-4.441
	c0-1.74,0.603-3.228,1.79-4.417c0.293-0.288,0.605-0.537,0.937-0.753c0.173-0.112,0.366-0.19,0.55-0.284
	c0.174-0.088,0.339-0.192,0.523-0.264c0.123-0.049,0.262-0.071,0.39-0.112c0.269-0.084,0.535-0.171,0.825-0.221
	c0.098-0.018,0.205-0.017,0.305-0.029c0.347-0.046,0.696-0.086,1.073-0.086c1.796,0,3.269,0.572,4.374,1.699
	c0.219,0.228,0.397,0.477,0.573,0.728c0.716,1.032,1.084,2.257,1.084,3.739c0,1.886-0.542,3.354-1.657,4.491
	C143.12,52.04,141.634,52.619,139.804,52.619z"/>
<path fill="#004FA3" d="M128.836,32.515c0.198-0.162,0.372-0.425,0.525-0.77c0.078-0.175,0.152-0.364,0.219-0.585l0.365-1.307
	l0.369-1.308l-0.431,0.123c-1.241,0.354-2.318,0.64-3.248,0.865c-0.463,0.111-0.899,0.212-1.278,0.289
	c-0.562,0.103-1.102,0.175-1.623,0.224c-0.46,0.042-0.909,0.068-1.337,0.068h-0.591c-0.077,0-0.158-0.011-0.273-0.028
	c-0.039-0.006-0.068-0.01-0.118-0.019c-0.288-0.035-0.567-0.068-0.839-0.096c-0.174-0.018-0.337-0.028-0.501-0.04
	c-0.081-0.006-0.169-0.016-0.248-0.02c-0.342-0.03-0.655-0.047-0.952-0.058c-0.002,0-0.004,0-0.006,0l-0.5-0.031v0.018
	c-1.033,0.002-2.013,0.138-2.938,0.397c-0.036,0.01-0.074,0.016-0.11,0.026c-0.234,0.068-0.461,0.154-0.688,0.239
	c-0.085,0.032-0.174,0.056-0.258,0.089c-0.159,0.065-0.312,0.145-0.468,0.218c-0.145,0.068-0.293,0.128-0.435,0.204
	c-0.076,0.04-0.147,0.09-0.222,0.132c-0.371,0.209-0.729,0.447-1.078,0.707c-0.396,0.296-0.782,0.613-1.148,0.975
	c-0.188,0.189-0.357,0.388-0.527,0.586c-1.611,1.881-2.435,4.156-2.435,6.781c0,0.464,0.026,0.918,0.078,1.361
	c0.009,0.075,0.029,0.145,0.039,0.22c0.172,1.242,0.538,2.402,1.117,3.452c0.345,0.639,0.767,1.226,1.238,1.776
	c0.071,0.082,0.132,0.173,0.205,0.253c0.039,0.042,0.085,0.079,0.125,0.121c0.536,0.566,1.137,1.086,1.814,1.544l-1.342,3.977
	l0.001-0.001l-0.001,0.004l0.551-0.287c1.179-0.614,2.242-1.055,3.251-1.348c1-0.284,1.952-0.422,2.912-0.422
	c1.659,0,3.134,0.42,4.409,1.242c0.045,0.03,0.092,0.056,0.138,0.087c0.099,0.066,0.192,0.143,0.288,0.215
	c0.31,0.232,0.612,0.485,0.903,0.772c1.567,1.544,2.362,3.444,2.362,5.647c0,1.186-0.267,2.274-0.778,3.264
	c-0.386,0.744-0.906,1.435-1.578,2.058c-0.294,0.271-0.6,0.511-0.913,0.731c-0.092,0.064-0.182,0.133-0.275,0.193
	c-0.089,0.057-0.181,0.106-0.271,0.16c-0.129,0.076-0.259,0.152-0.392,0.221c-0.077,0.04-0.156,0.075-0.235,0.112
	c-0.146,0.069-0.295,0.137-0.445,0.197c-0.085,0.033-0.17,0.063-0.256,0.094c-0.142,0.052-0.284,0.099-0.43,0.142
	c-0.109,0.032-0.22,0.063-0.332,0.09c-0.114,0.029-0.229,0.055-0.346,0.079c-0.15,0.03-0.301,0.059-0.455,0.081
	c-0.07,0.011-0.143,0.019-0.214,0.028c-0.196,0.023-0.394,0.045-0.597,0.057c-0.193,0.012-0.385,0.024-0.583,0.024
	c-0.677,0-1.33-0.098-1.968-0.248c-0.162-0.038-0.328-0.06-0.486-0.107c-0.021-0.006-0.041-0.018-0.062-0.023
	c-0.764-0.236-1.497-0.579-2.192-1.036c-1.402-0.942-2.639-2.346-3.675-4.17l-0.139-0.244l-2.937,2.14l0.112,0.195
	c0.423,0.733,0.894,1.396,1.386,2.023c1.031,1.316,2.201,2.419,3.522,3.251c1.929,1.219,4.095,1.837,6.438,1.837h0.317v0.01
	l0.5-0.01v-0.012c0.127-0.007,0.248-0.025,0.373-0.036c0.028-0.002,0.057-0.006,0.085-0.008c0.321-0.029,0.638-0.069,0.947-0.121
	c0.125-0.02,0.249-0.044,0.372-0.067c0.196-0.039,0.392-0.082,0.584-0.131c0.199-0.049,0.396-0.104,0.59-0.162
	c0.105-0.033,0.21-0.068,0.314-0.104c0.246-0.083,0.488-0.172,0.726-0.272c0.049-0.021,0.097-0.044,0.146-0.065
	c0.269-0.118,0.533-0.245,0.791-0.385c0.023-0.013,0.046-0.027,0.068-0.04c0.271-0.15,0.538-0.31,0.797-0.484
	c0.031-0.021,0.062-0.046,0.093-0.067c0.245-0.17,0.486-0.344,0.721-0.535c0.268-0.219,0.528-0.45,0.781-0.697
	c2.18-2.134,3.284-4.812,3.284-7.96c0-2.107-0.524-4.058-1.561-5.8c-0.427-0.69-0.934-1.31-1.493-1.88
	c-0.082-0.083-0.153-0.176-0.237-0.256c-0.058-0.055-0.124-0.101-0.183-0.154c-0.619-0.564-1.301-1.07-2.059-1.496
	c0.798-0.467,1.502-0.995,2.121-1.593c0.618-0.598,1.15-1.264,1.604-2.006c0.958-1.612,1.443-3.439,1.443-5.43
	c0-0.871-0.092-1.703-0.275-2.489c-0.184-0.787-0.457-1.53-0.821-2.222c-0.411-0.808-0.948-1.542-1.605-2.194
	c-0.219-0.217-0.451-0.425-0.696-0.624c0.899,0.146,1.533,0.226,1.805,0.226C128.155,32.891,128.557,32.769,128.836,32.515z
	 M125.788,40.194c0,0.739-0.092,1.435-0.27,2.087c-0.006,0.023-0.01,0.048-0.017,0.071c-0.015,0.055-0.037,0.105-0.054,0.159
	c-0.326,1.054-0.884,1.987-1.683,2.786c-1.343,1.367-3.064,2.063-5.135,2.065c-1.246-0.002-2.367-0.26-3.358-0.763
	c-0.034-0.017-0.069-0.03-0.103-0.048c-0.002,0-0.002-0.001-0.004-0.002c-0.607-0.322-1.165-0.741-1.671-1.255
	c-0.856-0.856-1.449-1.848-1.773-2.963c-0.194-0.669-0.292-1.383-0.292-2.139c0-0.55,0.066-1.074,0.185-1.579
	c0.29-1.241,0.929-2.345,1.925-3.29c0.217-0.207,0.441-0.391,0.672-0.565c1.25-0.936,2.727-1.415,4.408-1.415h0.023
	c2.028,0,3.692,0.654,5.085,1.999c0.076,0.074,0.142,0.152,0.214,0.227C125.162,36.858,125.788,38.41,125.788,40.194z"/>
<path fill="#004FA3" d="M104.403,31.768c-1.55-1.717-3.756-2.587-6.556-2.587c-1.739,0-3.305,0.395-4.651,1.171
	c-1.181,0.659-2.271,1.624-3.246,2.874v-3.759l-3.299,0.404v25.714l3.299-0.402V39.422c0-2.029,0.726-3.785,2.16-5.219
	c1.425-1.45,3.071-2.155,5.03-2.155c2.129,0,3.731,0.687,4.763,2.041c1.083,1.413,1.632,3.544,1.632,6.333v15.164l3.229-0.404
	V39.032C106.764,35.942,105.97,33.498,104.403,31.768z"/>
<polygon fill="#004FA3" points="80.394,29.869 80.394,55.637 83.761,55.182 83.761,29.468 "/>
<path fill="#004FA3" d="M1.708,56.35h-0.5c0-0.372-0.046-0.916-0.093-1.487c-0.055-0.655-0.111-1.332-0.111-1.856
	c0-27.879,22.681-50.561,50.56-50.561c10.965,0,22.126,3.743,30.621,10.268L81.88,13.11C73.471,6.65,62.42,2.945,51.563,2.945
	c-27.603,0-50.06,22.457-50.06,50.061c0,0.504,0.056,1.17,0.109,1.814C1.662,55.408,1.708,55.968,1.708,56.35L1.708,56.35z"/>
<path fill-rule="evenodd" clip-rule="evenodd" fill="#004FA3" d="M69.267,0.375l3.959,1.523c0.706,0.25,1.071,1.047,0.797,1.751
	c-0.273,0.708-1.07,1.071-1.776,0.797l-3.957-1.501c-0.706-0.273-1.048-1.069-0.774-1.774C67.766,0.466,68.562,0.124,69.267,0.375"
	/>
<path d="M62.766,19.881L51.085,48.005l-13.931-33.58l-3.438,0.667l17.14,41.268l0.232-0.548c4.895-11.524,9.777-23.286,14.5-34.659
	l0.246-0.592L62.766,19.881z"/>
<polygon points="67.538,8.283 65.525,13.139 67.378,13.898 69.365,9.044 "/>
<g>
	<rect x="6.48" y="37.512" transform="matrix(-0.9255 -0.3786 0.3786 -0.9255 2.9463 77.6038)" width="5.246" height="2"/>
	<polygon points="8.169,33.837 7.437,35.666 12.292,37.678 13.022,35.822 	"/>
</g>
<path fill-rule="evenodd" clip-rule="evenodd" d="M56.091,66.59c0.365,0,0.661-0.114,0.889-0.366
	c0.228-0.249,0.339-0.565,0.339-0.955c0-0.384-0.111-0.703-0.339-0.955c-0.228-0.249-0.523-0.363-0.889-0.363v-0.91
	c0.342,0,0.661,0.047,0.935,0.158c0.273,0.094,0.522,0.25,0.751,0.454c0.203,0.205,0.386,0.435,0.5,0.708
	c0.112,0.272,0.181,0.566,0.181,0.863c0,0.524-0.135,0.957-0.386,1.319c-0.272,0.367-0.638,0.638-1.138,0.82
	c0.181,0.114,0.365,0.182,0.546,0.227c0.181,0.07,0.363,0.092,0.523,0.092c0.068,0,0.135-0.021,0.205-0.021
	c0.068-0.022,0.137-0.047,0.181-0.07l0.092,0.115l-0.773,0.728H57.66c-0.385,0-0.75-0.092-1.136-0.271
	c-0.137-0.07-0.295-0.162-0.434-0.252V66.59z M54.862,65.269c0,0.39,0.115,0.706,0.342,0.955c0.229,0.252,0.524,0.366,0.887,0.366
	v1.319c-0.204-0.138-0.409-0.296-0.59-0.477c-0.569-0.162-1.004-0.411-1.298-0.798c-0.295-0.364-0.456-0.818-0.456-1.366
	c0-0.318,0.068-0.612,0.183-0.888c0.112-0.27,0.273-0.523,0.502-0.729c0.204-0.204,0.453-0.36,0.727-0.454
	c0.297-0.111,0.594-0.158,0.933-0.158v0.91c-0.362,0-0.658,0.114-0.887,0.363C54.978,64.565,54.862,64.885,54.862,65.269"/>
<path fill-rule="evenodd" clip-rule="evenodd" d="M65.717,63.106v2.481c0,0.591-0.183,1.07-0.547,1.411
	c-0.342,0.342-0.842,0.501-1.501,0.501c-0.639,0-1.139-0.159-1.502-0.501c-0.365-0.341-0.523-0.82-0.523-1.411v-2.481h1.07v2.437
	c0,0.342,0.089,0.591,0.25,0.776c0.158,0.179,0.409,0.271,0.729,0.271c0.295,0,0.546-0.092,0.704-0.271
	c0.16-0.186,0.251-0.435,0.251-0.776v-2.437H65.717z"/>
<path fill-rule="evenodd" clip-rule="evenodd" d="M70.903,65.84h0.638l-0.592-1.641l-0.046,0.093v-1.183h0.684l1.683,4.323h-1.136
	l-0.319-0.843h-0.911V65.84z M70.268,65.84h0.636v0.75h-0.933l-0.362,0.843H68.47l1.89-4.323h0.544v1.183L70.268,65.84z"/>
<polygon fill-rule="evenodd" clip-rule="evenodd" points="76.16,67.431 76.16,63.109 77.23,63.109 77.23,66.588 79.097,66.588 
	79.097,67.431 "/>
<rect x="82.214" y="63.106" fill-rule="evenodd" clip-rule="evenodd" width="1.115" height="4.324"/>
<polygon fill-rule="evenodd" clip-rule="evenodd" points="87.834,67.431 87.834,63.904 86.401,63.904 86.401,63.109 90.405,63.109 
	90.405,63.904 88.974,63.904 88.974,67.431 "/>
<polygon fill-rule="evenodd" clip-rule="evenodd" points="94.592,67.431 94.592,65.476 92.887,63.109 94.183,63.109 95.138,64.496 
	96.115,63.109 97.391,63.109 95.685,65.476 95.685,67.431 "/>
<polygon fill-rule="evenodd" clip-rule="evenodd" points="135.551,67.363 133.798,63.017 134.912,63.017 135.755,65.36 
	136.598,63.017 137.323,63.017 138.166,65.36 139.009,63.017 140.146,63.017 138.393,67.363 137.938,67.363 136.962,64.678 
	135.981,67.363 "/>
<path fill-rule="evenodd" clip-rule="evenodd" d="M144.607,65.748h0.635l-0.591-1.639l-0.044,0.067v-1.16h0.683l1.68,4.324h-1.134
	l-0.297-0.843h-0.932V65.748z M143.968,65.748h0.64v0.75h-0.936l-0.339,0.843h-1.162l1.89-4.324h0.547v1.16L143.968,65.748z"/>
<polygon fill-rule="evenodd" clip-rule="evenodd" points="150.568,67.341 150.568,63.814 149.134,63.814 149.134,63.017 
	153.14,63.017 153.14,63.814 151.705,63.814 151.705,67.341 "/>
<path fill-rule="evenodd" clip-rule="evenodd" d="M159.874,66.977c-0.274,0.135-0.546,0.249-0.795,0.319
	c-0.274,0.067-0.571,0.112-0.868,0.112c-0.339,0-0.658-0.045-0.931-0.159c-0.273-0.093-0.522-0.25-0.75-0.454
	c-0.205-0.205-0.366-0.454-0.479-0.729c-0.137-0.271-0.183-0.568-0.183-0.888c0-0.683,0.228-1.204,0.661-1.616
	c0.453-0.408,1.044-0.613,1.772-0.613c0.275,0,0.524,0.023,0.776,0.067c0.249,0.068,0.498,0.16,0.75,0.272v1.003
	c-0.252-0.139-0.479-0.252-0.729-0.342c-0.227-0.067-0.479-0.115-0.705-0.115c-0.457,0-0.796,0.115-1.048,0.367
	c-0.249,0.227-0.364,0.567-0.364,0.977s0.115,0.729,0.364,0.955c0.227,0.249,0.546,0.364,0.955,0.364
	c0.252,0,0.524-0.045,0.776-0.137c0.271-0.091,0.521-0.228,0.795-0.409V66.977z"/>
<polygon fill-rule="evenodd" clip-rule="evenodd" points="163.083,67.341 163.083,63.017 164.175,63.017 164.175,64.745 
	166.085,64.745 166.085,63.017 167.177,63.017 167.177,67.341 166.085,67.341 166.085,65.588 164.175,65.588 164.175,67.341 "/>
<polygon fill-rule="evenodd" clip-rule="evenodd" points="170.613,67.341 170.613,63.017 173.48,63.017 173.48,63.814 
	171.683,63.814 171.683,64.678 173.413,64.678 173.413,65.498 171.683,65.498 171.683,66.521 173.551,66.521 173.551,67.341 "/>
<path fill-rule="evenodd" clip-rule="evenodd" d="M176.757,66.977v-0.955c0.32,0.204,0.594,0.34,0.821,0.432
	c0.227,0.067,0.431,0.114,0.657,0.114c0.204,0,0.366-0.022,0.479-0.092c0.114-0.069,0.159-0.156,0.159-0.297
	c0-0.092-0.022-0.18-0.092-0.249c-0.067-0.048-0.228-0.135-0.477-0.227c-0.616-0.205-1.047-0.433-1.274-0.658
	c-0.227-0.232-0.342-0.504-0.342-0.868s0.138-0.661,0.435-0.888c0.316-0.228,0.703-0.34,1.182-0.34c0.249,0,0.501,0.023,0.75,0.091
	c0.228,0.045,0.477,0.137,0.729,0.249v0.888c-0.296-0.137-0.546-0.249-0.799-0.319c-0.227-0.067-0.431-0.112-0.612-0.112
	c-0.202,0-0.364,0.045-0.477,0.09c-0.115,0.069-0.162,0.162-0.162,0.274c0,0.093,0.047,0.159,0.14,0.249
	c0.112,0.07,0.25,0.162,0.454,0.228c0.022,0,0.092,0.024,0.182,0.07c0.412,0.156,0.706,0.273,0.888,0.389
	c0.183,0.112,0.319,0.269,0.409,0.453c0.114,0.182,0.159,0.384,0.159,0.614c0,0.408-0.159,0.728-0.456,0.957
	c-0.294,0.227-0.728,0.339-1.252,0.339c-0.271,0-0.523-0.045-0.773-0.112C177.235,67.226,176.983,67.134,176.757,66.977"/>
<polygon fill-rule="evenodd" clip-rule="evenodd" points="187.135,67.341 187.135,63.017 188.228,63.017 188.228,66.498 
	190.093,66.498 190.093,67.341 "/>
<polygon fill-rule="evenodd" clip-rule="evenodd" points="193.163,67.341 193.163,63.017 194.233,63.017 194.233,66.498 
	196.102,66.498 196.102,67.341 "/>
<path fill-rule="evenodd" clip-rule="evenodd" d="M202.948,66.977c-0.249,0.135-0.523,0.249-0.798,0.319
	c-0.272,0.067-0.547,0.112-0.841,0.112c-0.342,0-0.661-0.045-0.932-0.159c-0.297-0.093-0.546-0.25-0.751-0.454
	c-0.228-0.205-0.389-0.454-0.501-0.729c-0.115-0.271-0.16-0.568-0.16-0.888c0-0.683,0.205-1.204,0.661-1.616
	c0.454-0.408,1.047-0.613,1.773-0.613c0.273,0,0.522,0.023,0.774,0.067c0.25,0.068,0.499,0.16,0.729,0.272v1.003
	c-0.229-0.139-0.479-0.252-0.705-0.342c-0.25-0.067-0.479-0.115-0.729-0.115c-0.434,0-0.772,0.115-1.024,0.367
	c-0.249,0.227-0.388,0.567-0.388,0.977s0.139,0.729,0.364,0.955c0.252,0.249,0.571,0.364,0.955,0.364
	c0.275,0,0.524-0.045,0.798-0.137c0.25-0.091,0.524-0.228,0.773-0.409V66.977z"/>
</svg>
